<svg width="180" height="38" viewBox="0 0 180 38" fill="none" xmlns="http://www.w3.org/2000/svg">
<g clip-path="url(#clip0_49_337)">
<path d="M10.0308 8.87061C9.99315 8.81773 9.95549 8.76486 9.90729 8.69629C9.89209 8.67192 9.88489 8.66823 9.87512 8.66954C9.85667 8.64247 9.83821 8.61539 9.80487 8.56957C9.63848 8.37064 9.48697 8.19046 9.33546 8.01028C9.33546 8.01028 9.3235 8.01036 9.32651 7.99679C9.17491 7.78642 9.02209 7.58816 8.86415 7.39406C8.83343 7.35631 8.7835 7.31115 8.74124 7.30991C8.57863 7.30514 8.41474 7.28108 8.25589 7.35711C7.3228 7.80371 6.4622 8.35697 5.69847 9.05882C4.44965 10.2064 3.54813 11.5795 3.0072 13.1871C2.84766 13.6612 2.70364 14.1403 2.64063 14.6393C2.63595 14.6568 2.63126 14.6743 2.62055 14.7155C2.61188 14.772 2.60924 14.8047 2.6066 14.8375C2.5998 14.867 2.59301 14.8965 2.57941 14.9536C2.56746 15.052 2.56232 15.1229 2.55717 15.1937C2.55334 15.2113 2.5495 15.2288 2.53974 15.2729C2.51867 15.4491 2.50353 15.5988 2.48839 15.7485C2.48557 16.2251 2.48274 16.7018 2.48098 17.21C2.49122 17.298 2.50039 17.3546 2.50957 17.4111C2.5127 17.4671 2.51583 17.5231 2.52156 17.6061C2.53295 17.6646 2.54174 17.6961 2.55052 17.7276C2.55468 17.7838 2.55884 17.84 2.56582 17.921C2.57564 17.9656 2.58264 17.9853 2.58964 18.0051C2.59234 18.0483 2.59504 18.0914 2.60036 18.1594C2.61094 18.204 2.61891 18.2238 2.62688 18.2436C2.64048 18.3393 2.65408 18.435 2.6714 18.558C2.68677 18.6161 2.69842 18.647 2.71007 18.6779C2.79 18.9892 2.84928 19.3076 2.9549 19.6099C3.09995 20.0251 3.28011 20.428 3.45453 20.8599C3.48657 20.9195 3.50932 20.9554 3.53207 20.9912C3.54922 21.0337 3.56637 21.0762 3.59057 21.1363C3.60092 21.1636 3.60772 21.1692 3.61802 21.1703C3.61802 21.1703 3.617 21.1734 3.6195 21.1864C3.64552 21.2337 3.66904 21.2681 3.69257 21.3024C3.91955 21.6648 4.14654 22.0273 4.38307 22.4043C4.39262 22.4189 4.40006 22.4268 4.40006 22.4268L4.41092 22.4263C4.41092 22.4263 4.41193 22.4357 4.41951 22.4498C4.49908 22.5523 4.57107 22.6406 4.64307 22.7289C4.67639 22.7753 4.70972 22.8217 4.75711 22.8865C4.99408 23.1462 5.21264 23.3917 5.44163 23.6269C5.56441 23.7531 5.70514 23.8618 5.83777 23.9784C5.84734 23.9906 5.85691 24.0028 5.88181 24.0303C5.92909 24.0661 5.96106 24.0867 5.99302 24.1072C6.00167 24.1177 6.01032 24.1282 6.03462 24.1533C6.24325 24.3127 6.43624 24.4574 6.62922 24.6021C6.69354 24.6485 6.75786 24.6949 6.84117 24.7552C6.8881 24.7862 6.91606 24.8033 6.94402 24.8204C7.01924 24.9156 6.95515 25.0116 6.93952 25.1308C6.93291 25.1751 6.93219 25.1959 6.93147 25.2167C6.89673 25.3778 6.86198 25.5389 6.82147 25.7243C6.81503 25.7695 6.81434 25.7902 6.81365 25.8109C6.76463 26.0376 6.71561 26.2643 6.66027 26.5155C6.65165 26.5611 6.64936 26.5822 6.64707 26.6032C6.64146 26.6206 6.63584 26.638 6.62392 26.6774C6.61567 26.7201 6.61374 26.741 6.6118 26.7618C6.58989 26.8562 6.56798 26.9506 6.53782 27.0728C6.51445 27.1675 6.50699 27.2375 6.48093 27.2998C6.46786 27.331 6.4209 27.3481 6.38926 27.3716C6.31959 27.3274 6.24992 27.2832 6.1591 27.2263C6.09169 27.1902 6.04543 27.1667 5.99917 27.1433C5.93471 27.0988 5.87024 27.0542 5.78638 26.9957C5.68456 26.9338 5.60215 26.8857 5.51973 26.8376C5.48891 26.8133 5.45808 26.789 5.40925 26.7509C5.35503 26.7171 5.3188 26.6972 5.28258 26.6773C5.19916 26.6146 5.11574 26.5518 5.0134 26.4739C4.91789 26.4019 4.8413 26.3452 4.76471 26.2885C4.75052 26.2738 4.73633 26.2592 4.70615 26.2311C4.66266 26.2005 4.63516 26.1833 4.60766 26.1661C4.58293 26.1428 4.5582 26.1195 4.52126 26.0846C4.50341 26.0653 4.49622 26.0634 4.48746 26.0673C4.48746 26.0673 4.4794 26.0538 4.47409 26.0472C4.46877 26.0407 4.45851 26.0423 4.45851 26.0423C4.3907 25.9819 4.32288 25.9216 4.24322 25.8495C4.23138 25.8379 4.21672 25.8373 4.21672 25.8373C3.86873 25.4882 3.52074 25.139 3.16438 24.7795C3.15602 24.7691 3.14637 24.7683 3.14637 24.7683C3.08839 24.6965 3.03041 24.6247 2.95719 24.5341C2.90636 24.4811 2.87076 24.4467 2.83516 24.4124C2.83516 24.4124 2.82978 24.4239 2.83023 24.4057C2.77872 24.3304 2.72677 24.2733 2.67482 24.2163C2.67482 24.2163 2.67052 24.2251 2.6712 24.2088C2.64446 24.1618 2.61704 24.1311 2.58961 24.1004C2.55801 24.0529 2.52641 24.0054 2.48122 23.9393C2.42957 23.8754 2.39152 23.8301 2.35347 23.7849C2.35347 23.7849 2.35134 23.79 2.35063 23.7747C2.30169 23.6993 2.25345 23.6392 2.20521 23.579C2.20521 23.579 2.19671 23.5769 2.1986 23.5646C2.15634 23.4906 2.11218 23.429 2.06802 23.3673C2.01254 23.2747 1.95706 23.1821 1.88901 23.0705C1.8622 23.034 1.84795 23.0165 1.8337 22.999C1.8337 22.999 1.83448 22.9976 1.83156 22.9841C1.75098 22.8475 1.67331 22.7246 1.59564 22.6016C1.58757 22.5803 1.5795 22.559 1.56145 22.517C1.51503 22.4356 1.47859 22.3748 1.44216 22.3141C1.43612 22.2951 1.43009 22.2761 1.41745 22.2428C1.41085 22.2284 1.3966 22.2204 1.3966 22.2204C1.39211 22.2061 1.38762 22.1918 1.37268 22.1586C1.34849 22.1205 1.33475 22.1013 1.321 22.0821C1.24575 21.9194 1.1705 21.7566 1.08655 21.5698C1.0538 21.5011 1.02975 21.4565 1.00571 21.4119C0.984611 21.3524 0.963513 21.293 0.93281 21.2095C0.8854 21.0979 0.847593 21.0103 0.809787 20.9228C0.809787 20.9228 0.810753 20.9086 0.806995 20.8906C0.789554 20.8438 0.775869 20.815 0.762182 20.7862C0.761783 20.7782 0.761384 20.7701 0.756114 20.7381C0.726436 20.657 0.701627 20.6 0.676818 20.543C0.638472 20.4196 0.600124 20.2962 0.556226 20.1487C0.540772 20.1057 0.53087 20.0868 0.520967 20.0679C0.489461 19.9436 0.457956 19.8192 0.418931 19.6684C0.396622 19.5985 0.381832 19.5551 0.367041 19.5117C0.350002 19.4256 0.332962 19.3394 0.312379 19.2307C0.301752 19.1927 0.294667 19.1771 0.287583 19.1615C0.284662 19.1295 0.281741 19.0975 0.275033 19.0408C0.262385 18.9969 0.253524 18.9776 0.244664 18.9584C0.243483 18.9399 0.242302 18.9215 0.237623 18.8801C0.225497 18.8377 0.216868 18.8182 0.20824 18.7988C0.204249 18.7556 0.200259 18.7124 0.192743 18.6449C0.181348 18.6011 0.173479 18.5816 0.165609 18.5622C0.154079 18.4665 0.142548 18.3707 0.128625 18.2443C0.118729 18.1839 0.111227 18.1543 0.107838 18.1146C0.104697 18.0851 0.097441 18.0655 0.0921869 18.03C0.0875276 17.9718 0.08087 17.9297 0.0774789 17.8731C0.0700475 17.8024 0.0593495 17.7463 0.0486504 17.6901C0.0449474 17.6081 0.0412444 17.5262 0.0361318 17.4135C0.0259706 17.3137 0.0172202 17.2445 0.00846987 17.1754C0.00701672 16.8836 0.00556477 16.5918 0.00504372 16.2658C0.00398226 16.1759 0.00199114 16.12 0 16.0642C0.00502317 15.9701 0.0100463 15.876 0.0197493 15.7518C0.0254302 15.6511 0.0264312 15.5805 0.0274334 15.5099C0.0363808 15.429 0.0453282 15.3481 0.059497 15.239C0.0649591 15.1675 0.0651984 15.1242 0.0723506 15.065C0.0826701 14.9913 0.0860769 14.9336 0.0961885 14.8674C0.101217 14.8386 0.0995398 14.8182 0.105892 14.7843C0.115773 14.7397 0.117627 14.7087 0.11948 14.6777C0.123899 14.6593 0.128317 14.6409 0.135951 14.6062C0.139165 14.5898 0.141899 14.5795 0.141899 14.5795L0.132498 14.5746C0.144632 14.5153 0.156766 14.4559 0.174423 14.3701C0.179372 14.3229 0.178799 14.3023 0.178225 14.2817C0.192982 14.2151 0.207739 14.1485 0.231257 14.0523C0.25073 13.9527 0.261444 13.8826 0.272158 13.8125C0.272158 13.8125 0.273888 13.8015 0.279632 13.7912C0.290679 13.7498 0.295982 13.7187 0.301286 13.6876C0.323021 13.6055 0.344754 13.5234 0.373194 13.4176C0.381993 13.3727 0.384086 13.3517 0.393505 13.3186C0.404773 13.2789 0.408715 13.2512 0.412657 13.2236C0.425077 13.1896 0.437498 13.1557 0.458362 13.0969C0.495368 12.9782 0.522656 12.8838 0.552737 12.7904C0.630841 12.5478 0.710174 12.3056 0.789016 12.0632C0.807428 12.0201 0.82584 11.9771 0.854799 11.9107C0.99235 11.5905 1.11935 11.2937 1.24635 10.9969C1.27138 10.9524 1.2964 10.9078 1.33334 10.8427C1.36461 10.7751 1.38395 10.7281 1.40329 10.6811C1.40329 10.6811 1.40221 10.6772 1.41338 10.6719C1.69325 10.2247 1.95701 9.77982 2.23279 9.34252C2.36501 9.13285 2.51998 8.93753 2.66465 8.73572C2.66465 8.73572 2.66632 8.73609 2.67769 8.72947C3.14612 8.16232 3.63003 7.62729 4.17859 7.15363C4.36193 6.99533 4.54516 6.8369 4.72844 6.67853C4.72844 6.67853 4.72603 6.67657 4.7404 6.67486C4.80242 6.6379 4.85049 6.60321 4.89765 6.56732C5.57143 6.05463 6.29013 5.61508 7.05088 5.2439C8.24074 4.66334 9.49797 4.31222 10.8055 4.12171C12.0103 3.94619 13.2127 3.96382 14.4112 4.15323C15.4567 4.31846 16.4683 4.61156 17.4398 5.03778C19.0564 5.74698 20.4717 6.73748 21.6615 8.0452C21.8254 8.22531 21.9894 8.40533 22.1533 8.58539C22.197 8.64588 22.2407 8.70637 22.2993 8.78636C22.4593 8.99424 22.6044 9.18262 22.7496 9.371C22.7496 9.371 22.7508 9.37005 22.7526 9.38337C22.791 9.44542 22.8275 9.49415 22.864 9.54289C22.8725 9.56144 22.8809 9.57999 22.9009 9.61669C22.963 9.70645 23.0135 9.77807 23.0639 9.84969C23.0639 9.84969 23.0661 9.8452 23.0661 9.85956C23.0982 9.92096 23.1303 9.968 23.1624 10.015C23.1858 10.0604 23.2092 10.1057 23.2458 10.1732C23.4446 10.5415 23.6302 10.8875 23.8158 11.2336C23.8391 11.292 23.8623 11.3505 23.8945 11.4323C23.9272 11.5003 23.951 11.5449 23.9748 11.5896C23.9914 11.6375 24.0079 11.6855 24.0348 11.7575C24.075 11.8495 24.1049 11.9174 24.1348 11.9853C24.1578 12.0566 24.1808 12.128 24.2119 12.2244C24.2438 12.307 24.2676 12.3646 24.2913 12.4221C24.3031 12.4664 24.3149 12.5107 24.3334 12.5818C24.3778 12.7176 24.4156 12.8267 24.4533 12.9357C24.4764 13.0326 24.4996 13.1295 24.529 13.2521C24.548 13.3089 24.5606 13.34 24.5732 13.3711C24.6078 13.5338 24.6424 13.6965 24.6829 13.8876C24.7033 13.9719 24.7178 14.0279 24.7324 14.0839C24.7499 14.2059 24.7674 14.3279 24.7883 14.4748C24.799 14.5193 24.8062 14.539 24.8134 14.5586C24.8168 14.6146 24.8201 14.6706 24.8262 14.7571C24.8499 14.9095 24.8708 15.0313 24.8917 15.1532C24.8914 15.1712 24.891 15.1891 24.8922 15.2369C24.9065 15.374 24.9192 15.4813 24.9318 15.5887C24.9326 15.6441 24.9334 15.6995 24.9344 15.7893C24.9415 16.1814 24.9483 16.5392 24.9551 16.8971C24.9457 17.0304 24.9363 17.1637 24.9218 17.3286C24.9112 17.4566 24.9056 17.5532 24.9001 17.6498C24.8958 17.6796 24.8914 17.7093 24.8812 17.7667C24.8613 17.918 24.8471 18.0418 24.833 18.1655C24.8246 18.2202 24.8162 18.2748 24.8026 18.3545C24.7971 18.4005 24.7968 18.4215 24.7965 18.4425C24.7875 18.4844 24.7785 18.5262 24.7623 18.5967C24.7278 18.7759 24.7004 18.9265 24.6731 19.0771C24.6655 19.1061 24.658 19.1352 24.6429 19.1912C24.5763 19.4476 24.5214 19.6781 24.4575 19.9062C24.033 21.422 23.3225 22.7938 22.3708 24.0439C22.2397 24.216 22.1112 24.39 21.9815 24.5632C21.9815 24.5632 21.9826 24.5664 21.969 24.5705C21.6804 24.8626 21.405 25.1504 21.1307 25.4392C21.0954 25.4764 21.0662 25.5192 21.0342 25.5595C21.0342 25.5595 21.0434 25.565 21.026 25.5653C20.9129 25.6577 20.8172 25.7499 20.7215 25.8421C20.7215 25.8421 20.7281 25.8469 20.7126 25.847C20.0078 26.4203 19.2941 26.9574 18.4806 27.3798C18.4473 27.2634 18.4207 27.1704 18.3941 27.0774C18.3823 27.0078 18.3706 26.9382 18.3549 26.8387C18.3242 26.7008 18.2973 26.5928 18.2705 26.4848C18.2687 26.4544 18.2669 26.4239 18.2617 26.3689C18.2494 26.325 18.2407 26.3057 18.232 26.2863C18.2296 26.2559 18.2272 26.2254 18.221 26.1708C18.2089 26.1271 18.2006 26.1077 18.1923 26.0882C18.192 26.0703 18.1917 26.0524 18.1885 26.006C18.1477 25.8166 18.1098 25.6557 18.0719 25.4948C18.0684 25.4613 18.065 25.4279 18.0569 25.3743C18.0513 25.3446 18.0462 25.3382 18.0371 25.3349C18.0364 25.3171 18.0357 25.2993 18.0327 25.2533C18.0188 25.1609 18.0147 25.0941 17.9939 25.033C17.9566 24.9231 17.9833 24.8482 18.0829 24.7854C18.1932 24.7159 18.2993 24.638 18.4004 24.5554C18.6426 24.3575 18.8808 24.1547 19.1207 23.954C19.1207 23.954 19.1374 23.948 19.15 23.9402C19.1722 23.927 19.1764 23.9187 19.175 23.9076C19.2011 23.8885 19.2273 23.8694 19.2714 23.8352C19.3488 23.758 19.4083 23.6958 19.4679 23.6336C19.4812 23.6321 19.4915 23.6257 19.514 23.6004C19.6976 23.4115 19.8751 23.2446 20.032 23.0602C20.2222 22.8365 20.395 22.5981 20.5754 22.3661C20.5754 22.3661 20.5726 22.3634 20.5853 22.3589C20.7974 22.0394 20.9968 21.7245 21.1963 21.4095C21.1963 21.4095 21.2042 21.405 21.2083 21.4009C21.2125 21.3969 21.2099 21.385 21.2099 21.385C21.2277 21.3563 21.2455 21.3275 21.2778 21.2749C21.3158 21.1994 21.3393 21.1476 21.3628 21.0958C21.3628 21.0958 21.3717 21.087 21.3821 21.0715C21.4357 20.9626 21.4789 20.8691 21.5287 20.7713C21.5434 20.7582 21.5449 20.7484 21.5398 20.7375C21.5615 20.6954 21.5832 20.6533 21.6156 20.5904C21.6301 20.5556 21.634 20.5416 21.6439 20.5254C21.657 20.515 21.6563 20.5075 21.6478 20.5008C21.6848 20.4187 21.7218 20.3366 21.7699 20.2304C21.8521 20.0012 21.9231 19.7961 21.9941 19.591C21.999 19.578 22.0039 19.565 22.0177 19.5308C22.0635 19.3778 22.1004 19.246 22.1372 19.1141C22.1436 19.0972 22.15 19.0802 22.1646 19.0388C22.1867 18.9419 22.2007 18.8695 22.2147 18.7972C22.2208 18.7798 22.2269 18.7625 22.2403 18.7199C22.2622 18.6099 22.2768 18.5251 22.2914 18.4403C22.2979 18.423 22.3043 18.4057 22.3179 18.3648C22.3263 18.3083 22.3275 18.2754 22.3288 18.2426C22.3364 18.2129 22.3439 18.1831 22.3581 18.1264C22.369 18.0416 22.3734 17.9837 22.3777 17.9259C22.3822 17.9081 22.3866 17.8903 22.3977 17.8473C22.4076 17.7642 22.411 17.7064 22.4144 17.6485C22.4209 17.6062 22.4274 17.5639 22.44 17.4933C22.4496 17.3942 22.4531 17.3233 22.4566 17.2525C22.4616 17.2224 22.4666 17.1923 22.4774 17.1338C22.4873 16.8625 22.4945 16.6197 22.4938 16.377C22.4935 16.2736 22.4767 16.1704 22.4673 16.067C22.4671 16.0113 22.4668 15.9555 22.466 15.8674C22.453 15.7406 22.4406 15.6462 22.4282 15.5519C22.4269 15.5088 22.4256 15.4657 22.4224 15.3942C22.4107 15.3219 22.4009 15.2779 22.3911 15.234C22.3882 15.1783 22.3853 15.1225 22.3803 15.0395C22.3687 14.9807 22.3591 14.9492 22.3495 14.9178C22.348 14.8855 22.3465 14.8532 22.3425 14.7952C22.3309 14.7413 22.3217 14.7133 22.3126 14.6853C22.3124 14.6722 22.3123 14.6591 22.307 14.6216C22.2829 14.5179 22.2638 14.4386 22.2447 14.3593C22.2206 14.2332 22.1964 14.1072 22.1686 13.9643C22.1651 13.9475 22.1539 13.9378 22.1539 13.9378C22.1518 13.9172 22.1498 13.8966 22.1437 13.8512C22.1295 13.8075 22.1194 13.7886 22.1093 13.7697C22.1059 13.7481 22.1025 13.7266 22.0944 13.6875C22.089 13.6612 22.0841 13.6567 22.0753 13.6564C22.0551 13.5825 22.035 13.5086 22.0077 13.4075C21.9606 13.2714 21.9205 13.1625 21.8804 13.0537C21.8628 12.9932 21.8452 12.9327 21.8176 12.8496C21.788 12.781 21.7683 12.735 21.7486 12.6891C21.7486 12.6891 21.7466 12.672 21.7384 12.6521C21.716 12.6075 21.7018 12.5828 21.6876 12.5581C21.6876 12.5581 21.6912 12.5473 21.6869 12.5284C21.6099 12.3483 21.544 12.1838 21.4632 12.0269C21.3587 11.824 21.2424 11.6273 21.1312 11.4279C21.1075 11.3822 21.0838 11.3365 21.0486 11.268C20.8303 10.9479 20.6235 10.6507 20.4166 10.3535C20.4172 10.3415 20.4133 10.3313 20.3926 10.3057C19.996 9.79578 19.568 9.34378 19.0965 8.93401C18.9491 8.80594 18.789 8.69248 18.6348 8.57233C18.6348 8.57233 18.6308 8.57585 18.6276 8.56264C18.5903 8.51835 18.5588 8.48368 18.5217 8.45671C17.9279 8.02516 17.3045 7.64156 16.6303 7.35027C16.4949 7.29177 16.3214 7.31761 16.1652 7.31436C16.1362 7.31376 16.1013 7.35608 16.0775 7.38543C15.8741 7.63651 15.6712 7.88801 15.4709 8.14158C15.0213 8.71081 14.5726 9.2807 14.1255 9.8519C14.0597 9.93595 13.9905 9.97267 13.8754 9.96897C13.5992 9.96008 13.3222 9.97451 13.0286 9.97462C12.9302 9.97317 12.8488 9.97663 12.7529 9.97565C12.7089 9.97412 12.6792 9.97704 12.6317 9.97497C12.4007 9.97319 12.1876 9.97638 11.9565 9.97514C11.6486 9.97113 11.3587 9.96904 11.0688 9.97336C10.9684 9.97485 10.8913 9.9462 10.8298 9.86452C10.7466 9.7542 10.6574 9.64845 10.5708 9.54071C10.3978 9.32543 10.2248 9.11014 10.0517 8.88855C10.0474 8.8735 10.0405 8.86962 10.0308 8.87061Z" fill="#007AFF"/>
<path d="M16.8116 25.2149C16.8411 25.3766 16.8706 25.5383 16.9038 25.7267C16.9168 25.7847 16.926 25.816 16.9352 25.8472C16.9496 25.9307 16.964 26.0141 16.9822 26.1219C16.9945 26.1658 17.0028 26.1853 17.0111 26.2048C17.0181 26.2532 17.025 26.3015 17.0355 26.3657C17.0391 26.3816 17.049 26.3907 17.049 26.3907C17.0523 26.4244 17.0557 26.4581 17.0628 26.517C17.0744 26.5618 17.0823 26.5815 17.0902 26.6011C17.0931 26.6318 17.096 26.6625 17.1027 26.7167C17.1144 26.7599 17.1223 26.7795 17.1301 26.7991C17.1365 26.8468 17.1429 26.8946 17.1528 26.9597C17.1562 26.977 17.1675 26.9872 17.1675 26.9872C17.1694 27.0088 17.1712 27.0304 17.1765 27.0785C17.1902 27.135 17.2005 27.1649 17.2108 27.1948C17.2169 27.2428 17.2229 27.2907 17.2322 27.3558C17.2354 27.3729 17.2466 27.3829 17.2466 27.3829C17.2479 27.4032 17.2492 27.4236 17.2538 27.4706C17.268 27.5286 17.2787 27.5599 17.2895 27.5913C17.2962 27.6397 17.3029 27.6881 17.3132 27.7521C17.3168 27.7677 17.3264 27.7768 17.3264 27.7768C17.3446 27.8768 17.3628 27.9769 17.3856 28.1053C17.4089 28.2038 17.4276 28.274 17.4463 28.3442C17.449 28.3747 17.4517 28.4052 17.4578 28.4596C17.469 28.5032 17.477 28.5229 17.485 28.5426C17.5077 28.6655 17.5305 28.7883 17.5575 28.941C17.5838 29.0674 17.6059 29.1641 17.6279 29.2607C17.6551 29.4249 17.6822 29.5891 17.7092 29.7735C17.7089 29.7937 17.7131 29.8017 17.7131 29.8017C17.7063 29.8093 17.6996 29.8168 17.6749 29.8425C17.6241 29.8962 17.5913 29.9319 17.5585 29.9676C17.5585 29.9676 17.561 29.9696 17.5477 29.9731C17.4362 30.0792 17.338 30.1819 17.2397 30.2846C17.2264 30.2854 17.2158 30.2913 17.1929 30.315C17.1457 30.3659 17.1136 30.4039 17.0816 30.442C17.0816 30.442 17.0849 30.445 17.0719 30.4476C17.0139 30.5004 16.969 30.5507 16.924 30.601C16.924 30.601 16.9271 30.6033 16.9136 30.6066C16.6963 30.8183 16.4926 31.0268 16.2888 31.2353C16.2754 31.2366 16.265 31.2429 16.243 31.2677C16.1961 31.3185 16.1638 31.3558 16.1315 31.3931C16.1315 31.3931 16.1347 31.3956 16.1211 31.3987C15.9912 31.5168 15.8734 31.6304 15.7588 31.747C15.5254 31.9846 15.2938 32.2238 15.0614 32.4624C15.0614 32.4624 15.0652 32.4646 15.0511 32.4667C14.8191 32.691 14.6011 32.9131 14.3831 33.1352C14.3704 33.1362 14.3607 33.142 14.3387 33.1658C14.2382 33.2692 14.1528 33.3595 14.0675 33.4498C14.0675 33.4498 14.0727 33.4533 14.0585 33.4544C13.9992 33.5063 13.954 33.5571 13.9088 33.608C13.9088 33.608 13.9146 33.612 13.9 33.613C13.8389 33.6652 13.7924 33.7164 13.7459 33.7677C13.4737 34.0329 13.2016 34.2981 12.9126 34.5804C12.874 34.6242 12.8522 34.6509 12.8304 34.6776C12.8195 34.6783 12.8111 34.6833 12.7907 34.7053C12.6911 34.8111 12.6061 34.9039 12.521 34.9968C12.505 34.9998 12.489 35.0028 12.4543 34.9951C12.3761 34.9236 12.3166 34.8627 12.2732 34.802C12.4098 34.8113 12.4515 34.7511 12.4523 34.6356C12.4536 34.4342 12.4252 34.2345 12.4464 34.0309C12.4712 33.7919 12.4615 33.5495 12.4685 33.3087C12.4718 33.1939 12.4825 33.0793 12.4837 32.9646C12.4851 32.8429 12.4803 32.721 12.4762 32.5993C12.4704 32.4256 12.4554 32.2519 12.458 32.0783C12.461 31.8819 12.4837 31.6858 12.489 31.4894C12.4935 31.3248 12.4873 31.1598 12.4823 30.995C12.4741 30.7283 12.4568 30.4618 12.4557 30.1951C12.455 30.0385 12.4863 29.8819 12.4888 29.725C12.4942 29.3754 12.4861 29.0255 12.4921 28.6759C12.4956 28.4729 12.5172 28.2702 12.5276 28.0673C12.531 28.0017 12.5277 27.9354 12.5224 27.8699C12.514 27.7657 12.4919 27.6618 12.4918 27.5578C12.49 25.1757 12.4904 22.7937 12.4903 20.4116C12.4903 20.3457 12.5056 20.2739 12.4852 20.2147C12.3824 19.9178 12.5074 19.618 12.4645 19.3177C12.4389 19.1389 12.5092 18.9491 12.4542 18.7635C12.4436 18.7276 12.4536 18.6849 12.4571 18.6456C12.4674 18.5284 12.4897 18.4112 12.4889 18.2941C12.478 16.7551 12.5165 15.216 12.4538 13.6771C12.4162 12.7558 12.4958 11.8322 12.4125 10.9109C12.3965 10.7347 12.3907 10.7181 12.2165 10.6719C12.1721 10.6601 12.1284 10.6444 12.0833 10.6376C12.0011 10.6251 11.9736 10.5744 11.9935 10.4942C12.5927 10.4893 13.1738 10.489 13.7587 10.4945C13.7748 10.4998 13.787 10.4995 13.8058 10.501C13.8123 10.5029 13.8259 10.5031 13.8259 10.5031C13.836 10.5651 13.8461 10.6271 13.8598 10.7124C13.8705 10.7551 13.8774 10.7745 13.8844 10.7939C13.8877 10.8249 13.891 10.8558 13.8978 10.9103C13.9089 10.9531 13.9164 10.9725 13.924 10.9919C13.9529 11.1411 13.9818 11.2902 14.0146 11.4638C14.0261 11.5079 14.0338 11.5274 14.0415 11.5469C14.0448 11.5778 14.0481 11.6086 14.0552 11.663C14.0667 11.7058 14.0745 11.7252 14.0823 11.7446C14.0992 11.8411 14.1161 11.9375 14.1369 12.0582C14.1482 12.1017 14.1555 12.121 14.1629 12.1404C14.1642 12.1591 14.1656 12.1778 14.1705 12.219C14.1819 12.2611 14.1897 12.2807 14.1975 12.3003C14.1982 12.3184 14.1988 12.3365 14.2023 12.3796C14.2154 12.436 14.2257 12.4674 14.2359 12.4988C14.2804 12.7395 14.325 12.9803 14.3734 13.246C14.3846 13.2904 14.3919 13.3098 14.3992 13.3292C14.4004 13.3478 14.4016 13.3664 14.4061 13.4076C14.4182 13.4497 14.4269 13.4692 14.4356 13.4887C14.4522 13.5849 14.4688 13.6811 14.4893 13.8015C14.5007 13.8453 14.5083 13.8649 14.516 13.8845C14.5185 13.9152 14.521 13.9458 14.527 14.0003C14.5384 14.0437 14.5463 14.0634 14.5542 14.083C14.555 14.1011 14.5558 14.1193 14.5598 14.1623C14.5741 14.2182 14.5851 14.2492 14.5961 14.2803C14.6029 14.3293 14.6096 14.3783 14.6212 14.4412C14.626 14.4552 14.6328 14.4636 14.6328 14.4636C14.637 14.4982 14.6412 14.5328 14.6496 14.5926C14.6613 14.6373 14.6688 14.6568 14.6762 14.6762C14.6794 14.7072 14.6826 14.7381 14.6896 14.7926C14.7011 14.8354 14.7088 14.8547 14.7166 14.8741C14.7181 14.8927 14.7196 14.9114 14.7245 14.9525C14.7357 14.9946 14.7435 15.0144 14.7512 15.0341C14.756 15.0774 14.7608 15.1206 14.7697 15.188C14.7815 15.2314 14.7891 15.2506 14.7967 15.2699C14.8152 15.3678 14.8338 15.4657 14.8579 15.5921C14.8802 15.6888 14.8968 15.7569 14.9135 15.825C14.9334 15.9401 14.9532 16.0552 14.9767 16.1849C14.9804 16.1995 14.9893 16.2085 14.9893 16.2085C14.993 16.2425 14.9966 16.2766 15.0048 16.3399C15.0297 16.4521 15.0499 16.5351 15.0701 16.618C15.0865 16.7143 15.1029 16.8105 15.1235 16.931C15.1354 16.9747 15.1431 16.9942 15.1508 17.0137C15.1538 17.0447 15.1567 17.0756 15.1646 17.134C15.19 17.2442 15.2106 17.3268 15.2312 17.4094C15.2342 17.4404 15.2373 17.4714 15.2441 17.5259C15.2551 17.5689 15.2624 17.5885 15.2696 17.608C15.273 17.6388 15.2764 17.6697 15.2836 17.724C15.2951 17.7669 15.3028 17.7863 15.3104 17.8057C15.3137 17.8363 15.3169 17.8669 15.3247 17.9243C15.3479 18.022 15.3664 18.0928 15.3849 18.1637C15.3874 18.194 15.3898 18.2243 15.3957 18.2805C15.4094 18.3374 15.4197 18.3685 15.4299 18.3996C15.4333 18.4307 15.4367 18.4617 15.444 18.5162C15.4551 18.559 15.4622 18.5785 15.4693 18.5979C15.4811 18.668 15.4929 18.7381 15.5081 18.8351C15.522 18.8933 15.5326 18.9247 15.5432 18.956C15.5482 18.9993 15.5531 19.0425 15.5624 19.1099C15.5738 19.1533 15.581 19.1727 15.5882 19.1921C15.5927 19.2264 15.5972 19.2607 15.6053 19.3137C15.609 19.3408 15.6132 19.3456 15.6217 19.3466C15.6343 19.4181 15.6468 19.4895 15.6628 19.5892C15.679 19.6607 15.6917 19.704 15.7044 19.7474C15.7207 19.8437 15.737 19.94 15.7574 20.0605C15.7688 20.1044 15.7762 20.124 15.7836 20.1436C15.7866 20.1743 15.7896 20.2049 15.797 20.2631C15.8219 20.3737 15.8424 20.4567 15.8628 20.5397C15.8693 20.5875 15.8757 20.6353 15.8854 20.7006C15.8887 20.7181 15.8998 20.729 15.8998 20.729C15.9068 20.7788 15.9138 20.8287 15.9242 20.8975C15.9276 20.9165 15.9392 20.9283 15.9392 20.9283C15.9493 20.9881 15.9595 21.0479 15.9742 21.1361C15.9936 21.2202 16.0085 21.2758 16.0234 21.3315C16.0265 21.3624 16.0297 21.3934 16.0371 21.4478C16.0488 21.4906 16.0563 21.5099 16.0638 21.5293C16.0889 21.665 16.114 21.8008 16.1424 21.964C16.1561 22.0228 16.1667 22.0542 16.1772 22.0855C16.1818 22.1287 16.1863 22.1719 16.1951 22.2393C16.2067 22.2829 16.2142 22.3023 16.2218 22.3217C16.247 22.4573 16.2722 22.5929 16.3007 22.7561C16.3148 22.8152 16.3257 22.8466 16.3365 22.8781C16.357 22.9926 16.3776 23.1072 16.402 23.2366C16.4059 23.2514 16.4153 23.2604 16.4153 23.2604C16.4459 23.4266 16.4766 23.5928 16.5111 23.7838C16.5226 23.828 16.5302 23.8475 16.5378 23.8669C16.5415 23.8979 16.5453 23.9288 16.5528 23.9831C16.5637 24.0259 16.5709 24.0454 16.5781 24.0648C16.5812 24.0956 16.5842 24.1265 16.5917 24.1843C16.6152 24.2817 16.6344 24.352 16.6536 24.4224C16.6566 24.4529 16.6597 24.4834 16.666 24.5377C16.6775 24.5812 16.6856 24.6008 16.6938 24.6204C16.7199 24.769 16.7459 24.9176 16.7756 25.0937C16.79 25.1524 16.8008 25.1836 16.8116 25.2149Z" fill="#006CE2"/>
<path d="M11.9756 10.4989C11.9738 10.5745 12.0013 10.6252 12.0835 10.6377C12.1286 10.6445 12.1723 10.6602 12.2167 10.6719C12.3908 10.7181 12.3967 10.7348 12.4126 10.911C12.496 11.8323 12.4164 12.7559 12.454 13.6772C12.5167 15.2161 12.4782 16.7552 12.4891 18.2942C12.4899 18.4112 12.4676 18.5284 12.4573 18.6457C12.4538 18.685 12.4438 18.7276 12.4544 18.7635C12.5093 18.9492 12.4391 19.1389 12.4646 19.3178C12.5076 19.6181 12.3826 19.9178 12.4853 20.2148C12.5058 20.274 12.4904 20.3458 12.4905 20.4117C12.4906 22.7938 12.4902 25.1758 12.492 27.5579C12.4921 27.6619 12.5141 27.7658 12.5226 27.87C12.5279 27.9355 12.5312 28.0018 12.5278 28.0674C12.5174 28.2703 12.4958 28.473 12.4923 28.676C12.4863 29.0256 12.4943 29.3755 12.489 29.7251C12.4865 29.8819 12.4552 30.0385 12.4559 30.1952C12.457 30.4618 12.4743 30.7284 12.4825 30.9951C12.4875 31.1598 12.4937 31.3248 12.4892 31.4894C12.4839 31.6859 12.4611 31.882 12.4582 32.0784C12.4556 32.252 12.4706 32.4257 12.4764 32.5994C12.4805 32.7211 12.4853 32.843 12.4839 32.9647C12.4827 33.0794 12.472 33.194 12.4687 33.3087C12.4617 33.5496 12.4714 33.792 12.4466 34.0309C12.4254 34.2346 12.4538 34.4343 12.4525 34.6357C12.4517 34.7512 12.41 34.8113 12.2645 34.7942C12.2196 34.773 12.1998 34.7599 12.1799 34.7468C12.1791 34.7359 12.1741 34.7275 12.1521 34.7075C12.0995 34.6598 12.0597 34.6263 12.02 34.5929C11.9099 34.4807 11.7998 34.3685 11.6739 34.239C11.633 34.2013 11.6079 34.181 11.5828 34.1606C11.5129 34.0867 11.443 34.0127 11.357 33.9212C11.3027 33.8707 11.2644 33.8376 11.2262 33.8045C11.2248 33.7918 11.2188 33.7819 11.1948 33.7598C11.0907 33.6593 10.9997 33.5739 10.9088 33.4886C10.8906 33.4662 10.8724 33.4439 10.84 33.4058C10.8006 33.37 10.7755 33.35 10.7504 33.3299C10.7491 33.3171 10.743 33.3071 10.7195 33.2857C10.6818 33.2512 10.6566 33.2312 10.6315 33.2112C10.5874 33.1631 10.5433 33.1151 10.4838 33.05C10.4301 33.0003 10.3919 32.9678 10.3537 32.9352C10.2957 32.874 10.2377 32.8128 10.1632 32.7344C10.0837 32.6579 10.0206 32.5988 9.95759 32.5396C9.62359 32.2008 9.2896 31.862 8.93931 31.5051C8.84553 31.4146 8.76806 31.3422 8.69059 31.2698C8.65824 31.2351 8.62589 31.2004 8.57774 31.15C8.531 31.1105 8.50005 31.0865 8.46911 31.0625C8.46911 31.0625 8.46544 31.0633 8.46238 31.0505C8.42996 31.0115 8.4006 30.9854 8.37125 30.9592C8.36912 30.9453 8.36219 30.9345 8.33672 30.9118C8.28634 30.8646 8.24969 30.8323 8.21304 30.8C8.1555 30.7375 8.09796 30.675 8.02405 30.5959C7.97058 30.547 7.93349 30.5148 7.8964 30.4825C7.89453 30.4688 7.88778 30.4581 7.86246 30.4357C7.81185 30.3886 7.77494 30.3563 7.73802 30.324C7.73611 30.3103 7.72935 30.2996 7.70406 30.2772C7.65331 30.2305 7.61625 30.1985 7.57919 30.1666C7.52083 30.1043 7.46247 30.0421 7.38652 29.9614C7.25581 29.8568 7.22706 29.7449 7.2625 29.6101C7.27221 29.5732 7.26851 29.5328 7.27096 29.4939C7.2813 29.4519 7.29165 29.4099 7.30836 29.3417C7.31848 29.2825 7.32223 29.2495 7.32599 29.2165C7.33102 29.1991 7.33606 29.1817 7.34819 29.1387C7.38166 28.9626 7.40803 28.8123 7.43439 28.6619C7.44281 28.6325 7.45123 28.6031 7.46568 28.5501C7.47298 28.5056 7.47426 28.4846 7.47553 28.4636C7.48373 28.4342 7.49192 28.4049 7.5074 28.3487C7.53968 28.1843 7.56467 28.0468 7.58966 27.9093C7.59855 27.8797 7.60743 27.8502 7.62184 27.7968C7.62719 27.7524 7.627 27.7317 7.62682 27.7111C7.6365 27.6816 7.64617 27.6521 7.66267 27.5952C7.68618 27.4701 7.70286 27.3724 7.71955 27.2747C7.72493 27.2574 7.73032 27.2401 7.74233 27.1993C7.75195 27.1429 7.75494 27.1101 7.75794 27.0772C7.76487 27.0479 7.7718 27.0185 7.78499 26.966C7.79353 26.9215 7.7958 26.9003 7.79807 26.8791C7.80342 26.8615 7.80877 26.844 7.82098 26.8005C7.85889 26.6113 7.88996 26.4482 7.92102 26.2851C7.92593 26.2676 7.93083 26.2502 7.94162 26.2111C7.94942 26.1684 7.95132 26.1473 7.95322 26.1263C7.96096 26.097 7.9687 26.0678 7.98371 26.0115C8.01883 25.8337 8.04666 25.683 8.0745 25.5322C8.07988 25.5147 8.08526 25.4971 8.09705 25.4558C8.10735 25.3994 8.11124 25.3668 8.11513 25.3341C8.12042 25.3166 8.12571 25.299 8.13775 25.2551C8.17509 25.0527 8.20567 24.8766 8.23624 24.7005C8.24123 24.6829 8.24622 24.6654 8.25867 24.6223C8.30833 24.3804 8.35054 24.1641 8.39275 23.9477C8.39814 23.9303 8.40353 23.9128 8.41612 23.8693C8.47786 23.5611 8.5324 23.279 8.58695 22.9969C8.59463 22.9676 8.60232 22.9384 8.61737 22.882C8.63828 22.7978 8.65419 22.7414 8.66499 22.6839C8.72978 22.3394 8.79339 21.9947 8.85739 21.65C8.86611 21.6205 8.87483 21.5909 8.89068 21.5336C8.93255 21.3161 8.96729 21.1265 9.00203 20.9368C9.00203 20.9368 9.00462 20.9354 9.00862 20.9318C9.01261 20.9283 9.0157 20.9184 9.0157 20.9184L9.00721 20.9123C9.01904 20.8663 9.03088 20.8202 9.04851 20.748C9.05571 20.701 9.05712 20.6802 9.05852 20.6595C9.06689 20.6301 9.07525 20.6007 9.0908 20.5439C9.12284 20.3794 9.1477 20.2424 9.17257 20.1053C9.1832 20.0635 9.19383 20.0217 9.21083 19.9554C9.2196 19.9097 9.222 19.8885 9.22439 19.8672C9.23124 19.838 9.2381 19.8088 9.25266 19.7527C9.30089 19.5089 9.34141 19.292 9.38194 19.0751C9.38896 19.0458 9.39599 19.0165 9.41041 18.96C9.44577 18.7822 9.47373 18.6315 9.50169 18.4808C9.50838 18.4515 9.51507 18.4222 9.52804 18.3696C9.53668 18.3252 9.53903 18.3039 9.54138 18.2827C9.54648 18.2652 9.55158 18.2477 9.56389 18.2043C9.59881 18.0284 9.62652 17.8782 9.65422 17.7281C9.66209 17.6987 9.66996 17.6692 9.68386 17.6163C9.69129 17.5719 9.69268 17.5509 9.69407 17.5299C9.70237 17.5007 9.71065 17.4714 9.72627 17.4148C9.76138 17.237 9.78916 17.0864 9.81695 16.9359C9.8237 16.9064 9.83046 16.8769 9.84448 16.82C9.88985 16.5895 9.92795 16.3864 9.96606 16.1833C9.97484 16.1539 9.98362 16.1244 9.99785 16.0659C10.0478 15.8084 10.0923 15.5799 10.1368 15.3514C10.1416 15.3338 10.1464 15.3162 10.157 15.2766C10.1632 15.2341 10.1639 15.2134 10.1645 15.1927C10.1735 15.1635 10.1825 15.1342 10.1983 15.0775C10.2228 14.9522 10.2406 14.8545 10.2583 14.7567C10.2632 14.7394 10.268 14.7221 10.2786 14.683C10.2846 14.6403 10.285 14.6194 10.2853 14.5985C10.2938 14.5691 10.3023 14.5396 10.3172 14.4847C10.3277 14.4265 10.3318 14.3937 10.3358 14.3609C10.3411 14.3436 10.3463 14.3262 10.3589 14.2831C10.4265 13.9708 10.488 13.6845 10.5465 13.3976C10.5697 13.2836 10.5862 13.1683 10.6058 13.0536C10.6135 13.0242 10.6212 12.9947 10.6356 12.9401C10.6458 12.882 10.6493 12.849 10.6528 12.816C10.6579 12.7985 10.6631 12.7811 10.6756 12.7381C10.7123 12.5489 10.7417 12.3854 10.771 12.2218C10.7759 12.2042 10.7807 12.1865 10.7928 12.1432C10.8405 11.9014 10.8809 11.6852 10.9213 11.469C10.9294 11.4395 10.9374 11.41 10.9532 11.3535C11.0068 11.1369 11.0527 10.9472 11.1107 10.7501C11.2316 10.6406 11.3565 10.5862 11.5094 10.5968C11.6071 10.6036 11.7057 10.5967 11.8038 10.5981C11.8719 10.599 11.8963 10.562 11.9093 10.4954C11.94 10.4933 11.9578 10.4961 11.9756 10.4989Z" fill="#007AFF"/>
<g filter="url(#filter0_d_49_337)">
<mask id="path-4-inside-1_49_337" fill="white">
<path d="M38.4222 30.4444C37.6519 30.4444 36.8889 30.3259 36.1333 30.0889C35.3926 29.8519 34.7704 29.4815 34.2667 28.9778L35.3111 25.2444C35.6074 25.6889 35.9852 26.0444 36.4444 26.3111C36.9037 26.5778 37.4222 26.7111 38 26.7111C38.6963 26.7111 39.2741 26.4815 39.7333 26.0222C40.2074 25.563 40.4444 24.7926 40.4444 23.7111V10H44.5778V24C44.5778 25.4815 44.2889 26.7037 43.7111 27.6667C43.1333 28.6148 42.3704 29.3185 41.4222 29.7778C40.4889 30.2222 39.4889 30.4444 38.4222 30.4444ZM54.4375 30.4444C53.119 30.4444 51.9116 30.1259 50.8153 29.4889C49.719 28.8519 48.8449 27.9926 48.1931 26.9111C47.556 25.8296 47.2375 24.637 47.2375 23.3333C47.2375 22.0148 47.556 20.8222 48.1931 19.7556C48.8449 18.6741 49.719 17.8148 50.8153 17.1778C51.9116 16.5407 53.119 16.2222 54.4375 16.2222C55.7708 16.2222 56.9782 16.5407 58.0597 17.1778C59.156 17.8148 60.0227 18.6741 60.6597 19.7556C61.3116 20.8222 61.6375 22.0148 61.6375 23.3333C61.6375 24.637 61.3116 25.8296 60.6597 26.9111C60.0227 27.9926 59.156 28.8519 58.0597 29.4889C56.9782 30.1259 55.7708 30.4444 54.4375 30.4444ZM54.4375 26.9778C55.1042 26.9778 55.7042 26.8148 56.2375 26.4889C56.7856 26.163 57.2153 25.7259 57.5264 25.1778C57.8523 24.6148 58.0153 24 58.0153 23.3333C58.0153 22.6519 57.8523 22.037 57.5264 21.4889C57.2153 20.9407 56.7856 20.5037 56.2375 20.1778C55.7042 19.8519 55.1042 19.6889 54.4375 19.6889C53.7708 19.6889 53.1634 19.8519 52.6153 20.1778C52.0819 20.5037 51.6523 20.9407 51.3264 21.4889C51.0153 22.037 50.8597 22.6519 50.8597 23.3333C50.8597 24 51.0153 24.6148 51.3264 25.1778C51.6523 25.7259 52.0819 26.163 52.6153 26.4889C53.1634 26.8148 53.7708 26.9778 54.4375 26.9778ZM71.3931 30.3556C70.5486 30.3556 69.7708 30.2074 69.0597 29.9111C68.3634 29.6148 67.756 29.2074 67.2375 28.6889V30H63.9042V8.66667H67.7708V17.5111C68.2597 17.1259 68.8079 16.8296 69.4153 16.6222C70.0227 16.4148 70.6819 16.3111 71.3931 16.3111C72.6375 16.3111 73.7634 16.6296 74.7708 17.2667C75.7782 17.8889 76.5782 18.7333 77.1708 19.8C77.7782 20.8667 78.0819 22.0444 78.0819 23.3333C78.0819 24.6222 77.7782 25.8 77.1708 26.8667C76.5782 27.9185 75.7782 28.763 74.7708 29.4C73.7634 30.037 72.6375 30.3556 71.3931 30.3556ZM70.9486 26.9556C71.6005 26.9556 72.1931 26.7926 72.7264 26.4667C73.2597 26.1407 73.6819 25.7037 73.9931 25.1556C74.319 24.6074 74.4819 24 74.4819 23.3333C74.4819 22.6667 74.319 22.0593 73.9931 21.5111C73.6819 20.963 73.2597 20.5259 72.7264 20.2C72.1931 19.8741 71.6005 19.7111 70.9486 19.7111C70.2968 19.7111 69.7042 19.8741 69.1708 20.2C68.6375 20.5259 68.2079 20.963 67.8819 21.5111C67.5708 22.0593 67.4153 22.6667 67.4153 23.3333C67.4153 24 67.5708 24.6074 67.8819 25.1556C68.2079 25.7037 68.6375 26.1407 69.1708 26.4667C69.7042 26.7926 70.2968 26.9556 70.9486 26.9556ZM96.8292 30.6458L84.2354 17.5785V30H81.2646V9.97917L93.8583 23.025V10.625H96.8292V30.6458ZM107.378 30.3444C105.986 30.3444 104.744 30.0431 103.653 29.4403C102.563 28.8375 101.709 28.0123 101.092 26.9646C100.489 25.9169 100.188 24.7329 100.188 23.4125C100.188 22.1495 100.482 21.0157 101.07 20.0111C101.673 19.0065 102.477 18.21 103.481 17.6215C104.5 17.0331 105.62 16.7389 106.84 16.7389C108.074 16.7389 109.186 17.0259 110.176 17.6C111.181 18.1741 111.978 18.9562 112.566 19.9465C113.154 20.9225 113.449 22.0347 113.449 23.2833V24.4243H105.29C104.931 24.4243 104.572 24.41 104.213 24.3812C103.854 24.3382 103.496 24.288 103.137 24.2306C103.309 25.2208 103.783 26.0461 104.558 26.7062C105.347 27.3664 106.309 27.6965 107.442 27.6965C108.26 27.6965 109.007 27.5243 109.681 27.1799C110.356 26.8211 110.908 26.3618 111.339 25.8021L112.071 28.816C111.439 29.3183 110.722 29.6986 109.918 29.9569C109.114 30.2153 108.268 30.3444 107.378 30.3444ZM103.072 22.2931C103.819 22.1495 104.558 22.0778 105.29 22.0778H108.562C108.921 22.0778 109.265 22.0921 109.595 22.1208C109.94 22.1495 110.27 22.1854 110.585 22.2285C110.37 21.353 109.918 20.6426 109.229 20.0972C108.555 19.5375 107.751 19.2576 106.818 19.2576C105.914 19.2576 105.117 19.5447 104.428 20.1188C103.74 20.6928 103.288 21.4176 103.072 22.2931ZM119.828 30.3444C119.053 30.3444 118.249 30.2153 117.416 29.9569C116.598 29.6843 115.931 29.2752 115.414 28.7299L116.189 25.6944C116.606 26.3116 117.158 26.8282 117.847 27.2444C118.536 27.6606 119.253 27.8687 120 27.8687C120.617 27.8687 121.069 27.7324 121.356 27.4597C121.643 27.187 121.787 26.8569 121.787 26.4694C121.787 26.0389 121.636 25.7231 121.335 25.5222C121.033 25.3069 120.746 25.1491 120.473 25.0486L118.687 24.3812C118.328 24.2377 117.904 24.0368 117.416 23.7785C116.943 23.5058 116.527 23.1255 116.168 22.6375C115.809 22.1495 115.63 21.5109 115.63 20.7215C115.63 20.0039 115.802 19.3437 116.146 18.741C116.505 18.1382 117.015 17.6574 117.675 17.2986C118.335 16.9255 119.124 16.7389 120.043 16.7389C120.832 16.7389 121.6 16.8752 122.346 17.1479C123.107 17.4206 123.703 17.7866 124.133 18.2458L123.38 21.2382C122.963 20.6067 122.44 20.1116 121.808 19.7528C121.191 19.394 120.574 19.2146 119.957 19.2146C119.426 19.2146 119.024 19.3438 118.751 19.6021C118.478 19.8604 118.342 20.1618 118.342 20.5062C118.342 20.7646 118.435 21.0086 118.622 21.2382C118.809 21.4535 119.11 21.64 119.526 21.7979L121.227 22.4437C121.629 22.5873 122.081 22.7954 122.583 23.0681C123.1 23.3407 123.545 23.7282 123.918 24.2306C124.291 24.7329 124.478 25.4146 124.478 26.2757C124.478 27.4812 124.04 28.4644 123.164 29.225C122.303 29.9713 121.191 30.3444 119.828 30.3444ZM128.747 30V19.5375H126.077V17.0833H128.811V12.7778H131.718V17.0833H134.602V19.5375H131.782V30H128.747Z"/>
</mask>
<path d="M38.4222 30.4444C37.6519 30.4444 36.8889 30.3259 36.1333 30.0889C35.3926 29.8519 34.7704 29.4815 34.2667 28.9778L35.3111 25.2444C35.6074 25.6889 35.9852 26.0444 36.4444 26.3111C36.9037 26.5778 37.4222 26.7111 38 26.7111C38.6963 26.7111 39.2741 26.4815 39.7333 26.0222C40.2074 25.563 40.4444 24.7926 40.4444 23.7111V10H44.5778V24C44.5778 25.4815 44.2889 26.7037 43.7111 27.6667C43.1333 28.6148 42.3704 29.3185 41.4222 29.7778C40.4889 30.2222 39.4889 30.4444 38.4222 30.4444ZM54.4375 30.4444C53.119 30.4444 51.9116 30.1259 50.8153 29.4889C49.719 28.8519 48.8449 27.9926 48.1931 26.9111C47.556 25.8296 47.2375 24.637 47.2375 23.3333C47.2375 22.0148 47.556 20.8222 48.1931 19.7556C48.8449 18.6741 49.719 17.8148 50.8153 17.1778C51.9116 16.5407 53.119 16.2222 54.4375 16.2222C55.7708 16.2222 56.9782 16.5407 58.0597 17.1778C59.156 17.8148 60.0227 18.6741 60.6597 19.7556C61.3116 20.8222 61.6375 22.0148 61.6375 23.3333C61.6375 24.637 61.3116 25.8296 60.6597 26.9111C60.0227 27.9926 59.156 28.8519 58.0597 29.4889C56.9782 30.1259 55.7708 30.4444 54.4375 30.4444ZM54.4375 26.9778C55.1042 26.9778 55.7042 26.8148 56.2375 26.4889C56.7856 26.163 57.2153 25.7259 57.5264 25.1778C57.8523 24.6148 58.0153 24 58.0153 23.3333C58.0153 22.6519 57.8523 22.037 57.5264 21.4889C57.2153 20.9407 56.7856 20.5037 56.2375 20.1778C55.7042 19.8519 55.1042 19.6889 54.4375 19.6889C53.7708 19.6889 53.1634 19.8519 52.6153 20.1778C52.0819 20.5037 51.6523 20.9407 51.3264 21.4889C51.0153 22.037 50.8597 22.6519 50.8597 23.3333C50.8597 24 51.0153 24.6148 51.3264 25.1778C51.6523 25.7259 52.0819 26.163 52.6153 26.4889C53.1634 26.8148 53.7708 26.9778 54.4375 26.9778ZM71.3931 30.3556C70.5486 30.3556 69.7708 30.2074 69.0597 29.9111C68.3634 29.6148 67.756 29.2074 67.2375 28.6889V30H63.9042V8.66667H67.7708V17.5111C68.2597 17.1259 68.8079 16.8296 69.4153 16.6222C70.0227 16.4148 70.6819 16.3111 71.3931 16.3111C72.6375 16.3111 73.7634 16.6296 74.7708 17.2667C75.7782 17.8889 76.5782 18.7333 77.1708 19.8C77.7782 20.8667 78.0819 22.0444 78.0819 23.3333C78.0819 24.6222 77.7782 25.8 77.1708 26.8667C76.5782 27.9185 75.7782 28.763 74.7708 29.4C73.7634 30.037 72.6375 30.3556 71.3931 30.3556ZM70.9486 26.9556C71.6005 26.9556 72.1931 26.7926 72.7264 26.4667C73.2597 26.1407 73.6819 25.7037 73.9931 25.1556C74.319 24.6074 74.4819 24 74.4819 23.3333C74.4819 22.6667 74.319 22.0593 73.9931 21.5111C73.6819 20.963 73.2597 20.5259 72.7264 20.2C72.1931 19.8741 71.6005 19.7111 70.9486 19.7111C70.2968 19.7111 69.7042 19.8741 69.1708 20.2C68.6375 20.5259 68.2079 20.963 67.8819 21.5111C67.5708 22.0593 67.4153 22.6667 67.4153 23.3333C67.4153 24 67.5708 24.6074 67.8819 25.1556C68.2079 25.7037 68.6375 26.1407 69.1708 26.4667C69.7042 26.7926 70.2968 26.9556 70.9486 26.9556ZM96.8292 30.6458L84.2354 17.5785V30H81.2646V9.97917L93.8583 23.025V10.625H96.8292V30.6458ZM107.378 30.3444C105.986 30.3444 104.744 30.0431 103.653 29.4403C102.563 28.8375 101.709 28.0123 101.092 26.9646C100.489 25.9169 100.188 24.7329 100.188 23.4125C100.188 22.1495 100.482 21.0157 101.07 20.0111C101.673 19.0065 102.477 18.21 103.481 17.6215C104.5 17.0331 105.62 16.7389 106.84 16.7389C108.074 16.7389 109.186 17.0259 110.176 17.6C111.181 18.1741 111.978 18.9562 112.566 19.9465C113.154 20.9225 113.449 22.0347 113.449 23.2833V24.4243H105.29C104.931 24.4243 104.572 24.41 104.213 24.3812C103.854 24.3382 103.496 24.288 103.137 24.2306C103.309 25.2208 103.783 26.0461 104.558 26.7062C105.347 27.3664 106.309 27.6965 107.442 27.6965C108.26 27.6965 109.007 27.5243 109.681 27.1799C110.356 26.8211 110.908 26.3618 111.339 25.8021L112.071 28.816C111.439 29.3183 110.722 29.6986 109.918 29.9569C109.114 30.2153 108.268 30.3444 107.378 30.3444ZM103.072 22.2931C103.819 22.1495 104.558 22.0778 105.29 22.0778H108.562C108.921 22.0778 109.265 22.0921 109.595 22.1208C109.94 22.1495 110.27 22.1854 110.585 22.2285C110.37 21.353 109.918 20.6426 109.229 20.0972C108.555 19.5375 107.751 19.2576 106.818 19.2576C105.914 19.2576 105.117 19.5447 104.428 20.1188C103.74 20.6928 103.288 21.4176 103.072 22.2931ZM119.828 30.3444C119.053 30.3444 118.249 30.2153 117.416 29.9569C116.598 29.6843 115.931 29.2752 115.414 28.7299L116.189 25.6944C116.606 26.3116 117.158 26.8282 117.847 27.2444C118.536 27.6606 119.253 27.8687 120 27.8687C120.617 27.8687 121.069 27.7324 121.356 27.4597C121.643 27.187 121.787 26.8569 121.787 26.4694C121.787 26.0389 121.636 25.7231 121.335 25.5222C121.033 25.3069 120.746 25.1491 120.473 25.0486L118.687 24.3812C118.328 24.2377 117.904 24.0368 117.416 23.7785C116.943 23.5058 116.527 23.1255 116.168 22.6375C115.809 22.1495 115.63 21.5109 115.63 20.7215C115.63 20.0039 115.802 19.3437 116.146 18.741C116.505 18.1382 117.015 17.6574 117.675 17.2986C118.335 16.9255 119.124 16.7389 120.043 16.7389C120.832 16.7389 121.6 16.8752 122.346 17.1479C123.107 17.4206 123.703 17.7866 124.133 18.2458L123.38 21.2382C122.963 20.6067 122.44 20.1116 121.808 19.7528C121.191 19.394 120.574 19.2146 119.957 19.2146C119.426 19.2146 119.024 19.3438 118.751 19.6021C118.478 19.8604 118.342 20.1618 118.342 20.5062C118.342 20.7646 118.435 21.0086 118.622 21.2382C118.809 21.4535 119.11 21.64 119.526 21.7979L121.227 22.4437C121.629 22.5873 122.081 22.7954 122.583 23.0681C123.1 23.3407 123.545 23.7282 123.918 24.2306C124.291 24.7329 124.478 25.4146 124.478 26.2757C124.478 27.4812 124.04 28.4644 123.164 29.225C122.303 29.9713 121.191 30.3444 119.828 30.3444ZM128.747 30V19.5375H126.077V17.0833H128.811V12.7778H131.718V17.0833H134.602V19.5375H131.782V30H128.747Z" fill="black"/>
<path d="M36.1333 30.0889L35.8286 31.0413L35.834 31.043L36.1333 30.0889ZM34.2667 28.9778L33.3036 28.7084L33.1461 29.2714L33.5596 29.6849L34.2667 28.9778ZM35.3111 25.2444L36.1432 24.6897L34.9349 22.8774L34.3481 24.975L35.3111 25.2444ZM36.4444 26.3111L35.9423 27.1759L35.9423 27.1759L36.4444 26.3111ZM39.7333 26.0222L39.0375 25.304L39.0318 25.3095L39.0262 25.3151L39.7333 26.0222ZM40.4444 10V9H39.4444V10H40.4444ZM44.5778 10H45.5778V9H44.5778V10ZM43.7111 27.6667L44.5651 28.187L44.5686 28.1812L43.7111 27.6667ZM41.4222 29.7778L41.8522 30.6807L41.8582 30.6778L41.4222 29.7778ZM38.4222 29.4444C37.7562 29.4444 37.0941 29.3422 36.4327 29.1347L35.834 31.043C36.6837 31.3096 37.5475 31.4444 38.4222 31.4444V29.4444ZM36.4381 29.1365C35.8349 28.9434 35.3547 28.6516 34.9738 28.2707L33.5596 29.6849C34.186 30.3113 34.9503 30.7603 35.8286 31.0413L36.4381 29.1365ZM35.2297 29.2472L36.2741 25.5139L34.3481 24.975L33.3036 28.7084L35.2297 29.2472ZM34.4791 25.7991C34.8597 26.37 35.35 26.832 35.9423 27.1759L36.9466 25.4463C36.6204 25.2569 36.3552 25.0077 36.1432 24.6897L34.4791 25.7991ZM35.9423 27.1759C36.5674 27.5388 37.2618 27.7111 38 27.7111V25.7111C37.5826 25.7111 37.2401 25.6167 36.9466 25.4463L35.9423 27.1759ZM38 27.7111C38.9404 27.7111 39.7792 27.3906 40.4404 26.7293L39.0262 25.3151C38.7689 25.5724 38.4522 25.7111 38 25.7111V27.7111ZM40.4291 26.7405C41.1909 26.0025 41.4444 24.8979 41.4444 23.7111H39.4444C39.4444 24.6873 39.2239 25.1234 39.0375 25.304L40.4291 26.7405ZM41.4444 23.7111V10H39.4444V23.7111H41.4444ZM40.4444 11H44.5778V9H40.4444V11ZM43.5778 10V24H45.5778V10H43.5778ZM43.5778 24C43.5778 25.3566 43.3129 26.3867 42.8536 27.1522L44.5686 28.1812C45.2649 27.0207 45.5778 25.6064 45.5778 24H43.5778ZM42.8572 27.1463C42.3737 27.9397 41.752 28.5069 40.9863 28.8778L41.8582 30.6778C42.9887 30.1301 43.893 29.29 44.5651 28.187L42.8572 27.1463ZM40.9923 28.8749C40.1976 29.2533 39.345 29.4444 38.4222 29.4444V31.4444C39.6328 31.4444 40.7802 31.1911 41.8522 30.6806L40.9923 28.8749ZM50.8153 29.4889L51.3177 28.6243L51.3177 28.6243L50.8153 29.4889ZM48.1931 26.9111L47.3314 27.4187L47.3366 27.4273L48.1931 26.9111ZM48.1931 19.7556L47.3366 19.2393L47.3345 19.2428L48.1931 19.7556ZM50.8153 17.1778L50.3129 16.3132L50.3129 16.3132L50.8153 17.1778ZM58.0597 17.1778L57.5522 18.0394L57.5573 18.0424L58.0597 17.1778ZM60.6597 19.7556L59.7981 20.2631L59.8022 20.2701L59.8064 20.277L60.6597 19.7556ZM60.6597 26.9111L59.8032 26.3949L59.7981 26.4036L60.6597 26.9111ZM58.0597 29.4889L57.5573 28.6242L57.5522 28.6273L58.0597 29.4889ZM56.2375 26.4889L55.7264 25.6293L55.7161 25.6356L56.2375 26.4889ZM57.5264 25.1778L56.6609 24.6767L56.6567 24.6842L57.5264 25.1778ZM57.5264 21.4889L56.6567 21.9825L56.6617 21.9913L56.6669 22L57.5264 21.4889ZM56.2375 20.1778L55.716 21.0311L55.7264 21.0373L56.2375 20.1778ZM52.6153 20.1778L52.1042 19.3182L52.0938 19.3245L52.6153 20.1778ZM51.3264 21.4889L50.4669 20.9778L50.4617 20.9865L50.4567 20.9953L51.3264 21.4889ZM51.3264 25.1778L50.4511 25.6615L50.4588 25.6753L50.4669 25.6889L51.3264 25.1778ZM52.6153 26.4889L52.0938 27.3422L52.1042 27.3484L52.6153 26.4889ZM54.4375 29.4444C53.2881 29.4444 52.2552 29.169 51.3177 28.6243L50.3129 30.3535C51.568 31.0828 52.9498 31.4444 54.4375 31.4444V29.4444ZM51.3177 28.6243C50.3662 28.0714 49.6142 27.3317 49.0495 26.3949L47.3366 27.4273C48.0757 28.6535 49.0718 29.6323 50.3129 30.3535L51.3177 28.6243ZM49.0547 26.4036C48.5118 25.482 48.2375 24.4658 48.2375 23.3333H46.2375C46.2375 24.8083 46.6002 26.1773 47.3314 27.4186L49.0547 26.4036ZM48.2375 23.3333C48.2375 22.1839 48.5129 21.1704 49.0516 20.2683L47.3345 19.2428C46.5992 20.4741 46.2375 21.8458 46.2375 23.3333H48.2375ZM49.0495 20.2718C49.6142 19.335 50.3662 18.5953 51.3177 18.0424L50.3129 16.3132C49.0718 17.0343 48.0757 18.0132 47.3366 19.2393L49.0495 20.2718ZM51.3177 18.0424C52.2552 17.4977 53.2881 17.2222 54.4375 17.2222V15.2222C52.9498 15.2222 51.568 15.5838 50.3129 16.3132L51.3177 18.0424ZM54.4375 17.2222C55.6039 17.2222 56.6342 17.4987 57.5522 18.0394L58.5673 16.3161C57.3223 15.5828 55.9378 15.2222 54.4375 15.2222V17.2222ZM57.5573 18.0424C58.5068 18.5941 59.2491 19.3311 59.7981 20.2631L61.5214 19.248C60.7963 18.0171 59.8052 17.0355 58.5621 16.3132L57.5573 18.0424ZM59.8064 20.277C60.357 21.1779 60.6375 22.1883 60.6375 23.3333H62.6375C62.6375 21.8413 62.2661 20.4665 61.513 19.2341L59.8064 20.277ZM60.6375 23.3333C60.6375 24.4613 60.3581 25.4744 59.8033 26.3949L61.5162 27.4273C62.2651 26.1848 62.6375 24.8128 62.6375 23.3333H60.6375ZM59.7981 26.4036C59.2491 27.3356 58.5068 28.0725 57.5573 28.6243L58.5621 30.3535C59.8052 29.6312 60.7963 28.6496 61.5214 27.4186L59.7981 26.4036ZM57.5522 28.6273C56.6342 29.168 55.6039 29.4444 54.4375 29.4444V31.4444C55.9378 31.4444 57.3223 31.0838 58.5673 30.3505L57.5522 28.6273ZM54.4375 27.9778C55.2754 27.9778 56.0581 27.7705 56.759 27.3422L55.7161 25.6356C55.3503 25.8591 54.9329 25.9778 54.4375 25.9778V27.9778ZM56.7486 27.3484C57.4442 26.9348 57.9982 26.3724 58.3961 25.6714L56.6567 24.6842C56.4324 25.0794 56.1271 25.3911 55.7264 25.6294L56.7486 27.3484ZM58.3918 25.6788C58.8082 24.9597 59.0153 24.1714 59.0153 23.3333H57.0153C57.0153 23.8286 56.8965 24.27 56.661 24.6767L58.3918 25.6788ZM59.0153 23.3333C59.0153 22.4848 58.8101 21.6912 58.3859 20.9778L56.6669 22C56.8945 22.3828 57.0153 22.8189 57.0153 23.3333H59.0153ZM58.3961 20.9953C57.9982 20.2942 57.4442 19.7318 56.7486 19.3182L55.7264 21.0373C56.1271 21.2756 56.4324 21.5873 56.6567 21.9825L58.3961 20.9953ZM56.7589 19.3245C56.0581 18.8962 55.2754 18.6889 54.4375 18.6889V20.6889C54.9329 20.6889 55.3503 20.8075 55.7161 21.0311L56.7589 19.3245ZM54.4375 18.6889C53.5995 18.6889 52.8141 18.8961 52.1042 19.3182L53.1264 21.0373C53.5127 20.8076 53.9422 20.6889 54.4375 20.6889V18.6889ZM52.0938 19.3245C51.4187 19.7371 50.8742 20.2927 50.4669 20.9778L52.1859 22C52.4304 21.5887 52.7452 21.2704 53.1367 21.0311L52.0938 19.3245ZM50.4567 20.9953C50.0533 21.706 49.8597 22.4933 49.8597 23.3333H51.8597C51.8597 22.8104 51.9773 22.368 52.1961 21.9825L50.4567 20.9953ZM49.8597 23.3333C49.8597 24.1628 50.0552 24.9449 50.4511 25.6615L52.2016 24.6941C51.9754 24.2847 51.8597 23.8372 51.8597 23.3333H49.8597ZM50.4669 25.6889C50.8742 26.3739 51.4187 26.9296 52.0938 27.3422L53.1367 25.6356C52.7452 25.3963 52.4304 25.0779 52.1859 24.6667L50.4669 25.6889ZM52.1042 27.3484C52.8141 27.7706 53.5995 27.9778 54.4375 27.9778V25.9778C53.9422 25.9778 53.5127 25.8591 53.1264 25.6294L52.1042 27.3484ZM69.0597 29.9111L68.6682 30.8313L68.6751 30.8342L69.0597 29.9111ZM67.2375 28.6889L67.9446 27.9818L66.2375 26.2747V28.6889H67.2375ZM67.2375 30V31H68.2375V30H67.2375ZM63.9042 30H62.9042V31H63.9042V30ZM63.9042 8.66667V7.66667H62.9042V8.66667H63.9042ZM67.7708 8.66667H68.7708V7.66667H67.7708V8.66667ZM67.7708 17.5111H66.7708V19.5721L68.3897 18.2966L67.7708 17.5111ZM74.7708 17.2667L74.2363 18.1119L74.2453 18.1175L74.7708 17.2667ZM77.1708 19.8L76.2966 20.2857L76.3018 20.2948L77.1708 19.8ZM77.1708 26.8667L76.3018 26.3718L76.2996 26.3758L77.1708 26.8667ZM74.7708 29.4L74.2364 28.5548L74.7708 29.4ZM72.7264 26.4667L73.2478 27.3199L73.2478 27.3199L72.7264 26.4667ZM73.9931 25.1556L73.1335 24.6445L73.1284 24.6532L73.1234 24.6619L73.9931 25.1556ZM73.9931 21.5111L73.1234 22.0047L73.1284 22.0135L73.1335 22.0222L73.9931 21.5111ZM69.1708 20.2L69.6923 21.0533L69.6923 21.0533L69.1708 20.2ZM67.8819 21.5111L67.0224 21L67.0172 21.0087L67.0123 21.0175L67.8819 21.5111ZM67.8819 25.1556L67.0123 25.6492L67.0172 25.6579L67.0224 25.6666L67.8819 25.1556ZM69.1708 26.4667L68.6494 27.3199L68.6494 27.3199L69.1708 26.4667ZM71.3931 29.3556C70.6679 29.3556 70.0223 29.2289 69.4443 28.988L68.6751 30.8342C69.5193 31.186 70.4293 31.3556 71.3931 31.3556V29.3556ZM69.4513 28.991C68.869 28.7432 68.3697 28.4068 67.9446 27.9818L66.5304 29.396C67.1424 30.008 67.8579 30.4865 68.6682 30.8313L69.4513 28.991ZM66.2375 28.6889V30H68.2375V28.6889H66.2375ZM67.2375 29H63.9042V31H67.2375V29ZM64.9042 30V8.66667H62.9042V30H64.9042ZM63.9042 9.66667H67.7708V7.66667H63.9042V9.66667ZM66.7708 8.66667V17.5111H68.7708V8.66667H66.7708ZM68.3897 18.2966C68.787 17.9835 69.2346 17.7406 69.7384 17.5686L69.0921 15.6759C68.3812 15.9186 67.7324 16.2683 67.152 16.7256L68.3897 18.2966ZM69.7384 17.5686C70.2312 17.4003 70.7801 17.3111 71.3931 17.3111V15.3111C70.5838 15.3111 69.8142 15.4293 69.0921 15.6759L69.7384 17.5686ZM71.3931 17.3111C72.457 17.3111 73.3961 17.5805 74.2364 18.1119L75.3053 16.4215C74.1307 15.6787 72.818 15.3111 71.3931 15.3111V17.3111ZM74.2453 18.1175C75.1026 18.647 75.7845 19.3638 76.2967 20.2856L78.045 19.3144C77.372 18.1029 76.4538 17.1308 75.2963 16.4159L74.2453 18.1175ZM76.3018 20.2948C76.819 21.2031 77.0819 22.2089 77.0819 23.3333H79.0819C79.0819 21.8799 78.7374 20.5303 78.0398 19.3052L76.3018 20.2948ZM77.0819 23.3333C77.0819 24.4577 76.819 25.4636 76.3018 26.3718L78.0398 27.3615C78.7374 26.1364 79.0819 24.7867 79.0819 23.3333H77.0819ZM76.2996 26.3758C75.7871 27.2855 75.1021 28.0074 74.2364 28.5548L75.3053 30.2452C76.4544 29.5185 77.3694 28.5516 78.0421 27.3575L76.2996 26.3758ZM74.2364 28.5548C73.3961 29.0861 72.457 29.3556 71.3931 29.3556V31.3556C72.818 31.3556 74.1307 30.9879 75.3053 30.2452L74.2364 28.5548ZM70.9486 27.9556C71.7762 27.9556 72.5506 27.746 73.2478 27.3199L72.2049 25.6134C71.8355 25.8391 71.4247 25.9556 70.9486 25.9556V27.9556ZM73.2478 27.3199C73.9271 26.9048 74.4687 26.3435 74.8627 25.6492L73.1234 24.6619C72.8952 25.0639 72.5923 25.3767 72.2049 25.6134L73.2478 27.3199ZM74.8526 25.6666C75.2747 24.9567 75.4819 24.1714 75.4819 23.3333H73.4819C73.4819 23.8286 73.3632 24.2581 73.1335 24.6445L74.8526 25.6666ZM75.4819 23.3333C75.4819 22.4953 75.2747 21.71 74.8526 21L73.1335 22.0222C73.3632 22.4085 73.4819 22.838 73.4819 23.3333H75.4819ZM74.8627 21.0175C74.4687 20.3232 73.9271 19.7618 73.2478 19.3467L72.2049 21.0533C72.5923 21.29 72.8952 21.6028 73.1234 22.0047L74.8627 21.0175ZM73.2478 19.3467C72.5506 18.9206 71.7762 18.7111 70.9486 18.7111V20.7111C71.4247 20.7111 71.8355 20.8275 72.2049 21.0533L73.2478 19.3467ZM70.9486 18.7111C70.121 18.7111 69.3466 18.9206 68.6494 19.3467L69.6923 21.0533C70.0617 20.8275 70.4725 20.7111 70.9486 20.7111V18.7111ZM68.6494 19.3467C67.9743 19.7593 67.4297 20.315 67.0224 21L68.7415 22.0222C68.986 21.611 69.3007 21.2926 69.6923 21.0533L68.6494 19.3467ZM67.0123 21.0175C66.6108 21.7249 66.4153 22.504 66.4153 23.3333H68.4153C68.4153 22.8293 68.5309 22.3936 68.7516 22.0047L67.0123 21.0175ZM66.4153 23.3333C66.4153 24.1627 66.6108 24.9418 67.0123 25.6492L68.7516 24.6619C68.5309 24.273 68.4153 23.8373 68.4153 23.3333H66.4153ZM67.0224 25.6666C67.4297 26.3517 67.9743 26.9074 68.6494 27.3199L69.6923 25.6134C69.3007 25.3741 68.986 25.0557 68.7415 24.6445L67.0224 25.6666ZM68.6494 27.3199C69.3466 27.746 70.121 27.9556 70.9486 27.9556V25.9556C70.4725 25.9556 70.0617 25.8391 69.6923 25.6134L68.6494 27.3199ZM96.8292 30.6458L96.1091 31.3398L97.8292 33.1245V30.6458H96.8292ZM84.2354 17.5785L84.9555 16.8845L83.2354 15.0998V17.5785H84.2354ZM84.2354 30V31H85.2354V30H84.2354ZM81.2646 30H80.2646V31H81.2646V30ZM81.2646 9.97917L81.984 9.28463L80.2646 7.50345V9.97917H81.2646ZM93.8583 23.025L93.1389 23.7195L94.8583 25.5007V23.025H93.8583ZM93.8583 10.625V9.625H92.8583V10.625H93.8583ZM96.8292 10.625H97.8292V9.625H96.8292V10.625ZM97.5492 29.9519L84.9555 16.8845L83.5154 18.2724L96.1091 31.3398L97.5492 29.9519ZM83.2354 17.5785V30H85.2354V17.5785H83.2354ZM84.2354 29H81.2646V31H84.2354V29ZM82.2646 30V9.97917H80.2646V30H82.2646ZM80.5451 10.6737L93.1389 23.7195L94.5778 22.3305L81.984 9.28463L80.5451 10.6737ZM94.8583 23.025V10.625H92.8583V23.025H94.8583ZM93.8583 11.625H96.8292V9.625H93.8583V11.625ZM95.8292 10.625V30.6458H97.8292V10.625H95.8292ZM103.653 29.4403L103.17 30.3155L103.17 30.3155L103.653 29.4403ZM101.092 26.9646L100.225 27.4633L100.23 27.4721L101.092 26.9646ZM101.07 20.0111L100.213 19.4966L100.207 19.5057L101.07 20.0111ZM103.481 17.6215L102.981 16.7555L102.976 16.7586L103.481 17.6215ZM110.176 17.6L109.675 18.4652L109.68 18.4682L110.176 17.6ZM112.566 19.9465L111.706 20.4574L111.71 20.4629L112.566 19.9465ZM113.449 24.4243V25.4243H114.449V24.4243H113.449ZM104.213 24.3812L104.094 25.3741L104.114 25.3765L104.133 25.3781L104.213 24.3812ZM103.137 24.2306L103.295 23.2431L101.912 23.0218L102.152 24.4019L103.137 24.2306ZM104.558 26.7062L103.909 27.4675L103.916 27.4733L104.558 26.7062ZM109.681 27.1799L110.136 28.0705L110.143 28.0667L110.151 28.0627L109.681 27.1799ZM111.339 25.8021L112.311 25.5661L111.818 23.5387L110.546 25.1924L111.339 25.8021ZM112.071 28.816L112.693 29.5986L113.193 29.2008L113.043 28.58L112.071 28.816ZM109.918 29.9569L110.224 30.909L110.224 30.909L109.918 29.9569ZM103.072 22.2931L102.101 22.0543L101.728 23.5698L103.261 23.2751L103.072 22.2931ZM109.595 22.1208L109.509 23.1171L109.512 23.1174L109.595 22.1208ZM110.585 22.2285L110.45 23.2193L111.908 23.418L111.556 21.9897L110.585 22.2285ZM109.229 20.0972L108.591 20.8668L108.599 20.8741L108.608 20.8813L109.229 20.0972ZM104.428 20.1188L105.069 20.887L105.069 20.887L104.428 20.1188ZM107.378 29.3444C106.135 29.3444 105.063 29.0767 104.137 28.565L103.17 30.3155C104.425 31.0094 105.837 31.3444 107.378 31.3444V29.3444ZM104.137 28.565C103.199 28.0465 102.477 27.3466 101.953 26.457L100.23 27.4721C100.94 28.678 101.927 29.6285 103.17 30.3155L104.137 28.565ZM101.958 26.4659C101.451 25.5837 101.188 24.5745 101.188 23.4125H99.1875C99.1875 24.8913 99.5269 26.2501 100.225 27.4633L101.958 26.4659ZM101.188 23.4125C101.188 22.3116 101.442 21.355 101.933 20.5165L100.207 19.5057C99.5215 20.6765 99.1875 21.9874 99.1875 23.4125H101.188ZM101.928 20.5256C102.445 19.6638 103.128 18.9875 103.987 18.4844L102.976 16.7586C101.826 17.4324 100.901 18.3491 100.213 19.4966L101.928 20.5256ZM103.981 18.4875C104.843 17.9902 105.789 17.7389 106.84 17.7389V15.7389C105.451 15.7389 104.158 16.076 102.981 16.7555L103.981 18.4875ZM106.84 17.7389C107.912 17.7389 108.849 17.9863 109.675 18.4651L110.678 16.7349C109.523 16.0656 108.236 15.7389 106.84 15.7389V17.7389ZM109.68 18.4682C110.536 18.957 111.207 19.6163 111.706 20.4574L113.426 19.4357C112.749 18.2962 111.826 17.3912 110.673 16.7318L109.68 18.4682ZM111.71 20.4629C112.195 21.2683 112.449 22.1987 112.449 23.2833H114.449C114.449 21.8707 114.114 20.5767 113.422 19.4302L111.71 20.4629ZM112.449 23.2833V24.4243H114.449V23.2833H112.449ZM113.449 23.4243H105.29V25.4243H113.449V23.4243ZM105.29 23.4243C104.957 23.4243 104.625 23.411 104.293 23.3844L104.133 25.3781C104.519 25.4089 104.904 25.4243 105.29 25.4243V23.4243ZM104.332 23.3884C103.987 23.3469 103.641 23.2985 103.295 23.2431L102.979 25.218C103.35 25.2775 103.722 25.3295 104.094 25.3741L104.332 23.3884ZM102.152 24.4019C102.364 25.6253 102.959 26.6581 103.909 27.4675L105.206 25.945C104.606 25.434 104.254 24.8164 104.122 24.0592L102.152 24.4019ZM103.916 27.4733C104.904 28.2996 106.1 28.6965 107.442 28.6965V26.6965C106.518 26.6965 105.79 26.4333 105.199 25.9392L103.916 27.4733ZM107.442 28.6965C108.406 28.6965 109.31 28.4925 110.136 28.0705L109.226 26.2893C108.704 26.5561 108.115 26.6965 107.442 26.6965V28.6965ZM110.151 28.0627C110.941 27.6425 111.607 27.0936 112.132 26.4118L110.546 25.1924C110.21 25.63 109.771 25.9996 109.212 26.297L110.151 28.0627ZM110.367 26.0381L111.099 29.052L113.043 28.58L112.311 25.5661L110.367 26.0381ZM111.448 28.0334C110.916 28.4571 110.306 28.7818 109.612 29.0049L110.224 30.909C111.137 30.6154 111.963 30.1794 112.693 29.5986L111.448 28.0334ZM109.612 29.0049C108.912 29.2298 108.169 29.3444 107.378 29.3444V31.3444C108.366 31.3444 109.316 31.2008 110.224 30.909L109.612 29.0049ZM103.261 23.2751C103.948 23.1431 104.623 23.0778 105.29 23.0778V21.0778C104.492 21.0778 103.69 21.156 102.883 21.311L103.261 23.2751ZM105.29 23.0778H108.562V21.0778H105.29V23.0778ZM108.562 23.0778C108.894 23.0778 109.209 23.0911 109.509 23.1171L109.682 21.1246C109.321 21.0932 108.947 21.0778 108.562 21.0778V23.0778ZM109.512 23.1174C109.841 23.1448 110.153 23.1788 110.45 23.2193L110.721 21.2376C110.386 21.192 110.039 21.1543 109.678 21.1243L109.512 23.1174ZM111.556 21.9897C111.29 20.9047 110.718 20.0002 109.85 19.3132L108.608 20.8813C109.118 21.285 109.451 21.8013 109.614 22.4673L111.556 21.9897ZM109.868 19.3277C109.002 18.609 107.968 18.2576 106.818 18.2576V20.2576C107.534 20.2576 108.108 20.466 108.591 20.8668L109.868 19.3277ZM106.818 18.2576C105.682 18.2576 104.659 18.6253 103.788 19.3505L105.069 20.887C105.576 20.464 106.146 20.2576 106.818 20.2576V18.2576ZM103.788 19.3505C102.934 20.062 102.367 20.9727 102.101 22.0543L104.043 22.5318C104.208 21.8624 104.545 21.3236 105.069 20.887L103.788 19.3505ZM117.416 29.9569L117.1 30.9056L117.11 30.9089L117.12 30.912L117.416 29.9569ZM115.414 28.7299L114.445 28.4825L114.309 29.0171L114.688 29.4176L115.414 28.7299ZM116.189 25.6944L117.018 25.1353L115.772 23.287L115.22 25.4471L116.189 25.6944ZM117.847 27.2444L117.33 28.1004L117.33 28.1004L117.847 27.2444ZM121.356 27.4597L120.667 26.7347L120.667 26.7347L121.356 27.4597ZM121.335 25.5222L120.753 26.336L120.766 26.3453L120.78 26.3543L121.335 25.5222ZM120.473 25.0486L120.124 25.9854L120.128 25.987L120.473 25.0486ZM118.687 24.3812L118.315 25.3097L118.326 25.314L118.337 25.318L118.687 24.3812ZM117.416 23.7785L116.917 24.6451L116.933 24.654L116.949 24.6623L117.416 23.7785ZM116.168 22.6375L116.973 22.0451L116.973 22.0451L116.168 22.6375ZM116.146 18.741L115.287 18.2295L115.282 18.2371L115.278 18.2448L116.146 18.741ZM117.675 17.2986L118.152 18.1772L118.16 18.1733L118.167 18.1692L117.675 17.2986ZM122.346 17.1479L122.003 18.0872L122.009 18.0893L122.346 17.1479ZM124.133 18.2458L125.103 18.49L125.236 17.9604L124.863 17.5619L124.133 18.2458ZM123.38 21.2382L122.545 21.7885L123.795 23.6851L124.349 21.4824L123.38 21.2382ZM121.808 19.7528L121.305 20.6173L121.314 20.6222L121.808 19.7528ZM118.751 19.6021L118.063 18.8761L118.063 18.8761L118.751 19.6021ZM118.622 21.2382L117.846 21.8688L117.856 21.8811L117.866 21.8931L118.622 21.2382ZM119.526 21.7979L119.881 20.8631L119.881 20.8629L119.526 21.7979ZM121.227 22.4437L120.872 23.3786L120.881 23.3821L120.891 23.3855L121.227 22.4437ZM122.583 23.0681L122.106 23.947L122.116 23.9524L122.583 23.0681ZM123.918 24.2306L124.721 23.6342L124.721 23.6342L123.918 24.2306ZM123.164 29.225L123.819 29.9807L123.82 29.9799L123.164 29.225ZM119.828 29.3444C119.165 29.3444 118.461 29.2341 117.713 29.0019L117.12 30.912C118.037 31.1965 118.94 31.3444 119.828 31.3444V29.3444ZM117.733 29.0083C117.047 28.7798 116.528 28.4516 116.14 28.0421L114.688 29.4176C115.334 30.0989 116.149 30.5887 117.1 30.9056L117.733 29.0083ZM116.383 28.9772L117.158 25.9418L115.22 25.4471L114.445 28.4825L116.383 28.9772ZM115.36 26.2536C115.864 27.0007 116.527 27.6153 117.33 28.1004L118.364 26.3885C117.789 26.0412 117.347 25.6225 117.018 25.1353L115.36 26.2536ZM117.33 28.1004C118.162 28.6032 119.057 28.8687 120 28.8687V26.8687C119.45 26.8687 118.91 26.7181 118.364 26.3885L117.33 28.1004ZM120 28.8687C120.735 28.8687 121.491 28.7105 122.045 28.1847L120.667 26.7347C120.647 26.7543 120.499 26.8687 120 26.8687V28.8687ZM122.045 28.1847C122.526 27.7279 122.787 27.1377 122.787 26.4694H120.787C120.787 26.5762 120.76 26.6462 120.667 26.7347L122.045 28.1847ZM122.787 26.4694C122.787 25.7772 122.524 25.1136 121.889 24.6902L120.78 26.3543C120.786 26.3583 120.784 26.3582 120.78 26.3529C120.775 26.3475 120.772 26.3423 120.771 26.3405C120.769 26.3364 120.787 26.3696 120.787 26.4694H122.787ZM121.916 24.7085C121.561 24.4548 121.195 24.2487 120.819 24.1103L120.128 25.987C120.297 26.0495 120.506 26.1591 120.753 26.336L121.916 24.7085ZM120.823 24.1118L119.036 23.4445L118.337 25.318L120.124 25.9854L120.823 24.1118ZM119.058 23.4528C118.743 23.3267 118.353 23.1428 117.884 22.8947L116.949 24.6623C117.456 24.9308 117.913 25.1488 118.315 25.3097L119.058 23.4528ZM117.915 22.9118C117.574 22.7155 117.259 22.4335 116.973 22.0451L115.362 23.2299C115.794 23.8174 116.311 24.2961 116.917 24.6451L117.915 22.9118ZM116.973 22.0451C116.774 21.7744 116.63 21.3623 116.63 20.7215H114.63C114.63 21.6595 114.844 22.5246 115.362 23.2299L116.973 22.0451ZM116.63 20.7215C116.63 20.1719 116.759 19.6836 117.015 19.2371L115.278 18.2448C114.844 19.0039 114.63 19.836 114.63 20.7215H116.63ZM117.006 19.2525C117.266 18.8152 117.638 18.4565 118.152 18.1772L117.197 16.42C116.391 16.8583 115.744 17.4612 115.287 18.2295L117.006 19.2525ZM118.167 18.1692C118.648 17.8971 119.26 17.7389 120.043 17.7389V15.7389C118.988 15.7389 118.022 15.9538 117.183 16.428L118.167 18.1692ZM120.043 17.7389C120.714 17.7389 121.366 17.8544 122.003 18.0872L122.69 16.2087C121.834 15.8961 120.95 15.7389 120.043 15.7389V17.7389ZM122.009 18.0893C122.661 18.3232 123.108 18.6143 123.404 18.9298L124.863 17.5619C124.297 16.9589 123.553 16.518 122.684 16.2066L122.009 18.0893ZM123.163 18.0017L122.41 20.994L124.349 21.4824L125.103 18.49L123.163 18.0017ZM124.215 20.6879C123.715 19.9302 123.077 19.3234 122.302 18.8833L121.314 20.6222C121.803 20.8998 122.212 21.2832 122.545 21.7885L124.215 20.6879ZM122.311 18.8883C121.565 18.4548 120.776 18.2146 119.957 18.2146V20.2146C120.371 20.2146 120.817 20.3331 121.305 20.6173L122.311 18.8883ZM119.957 18.2146C119.276 18.2146 118.587 18.3803 118.063 18.8761L119.439 20.328C119.461 20.3072 119.575 20.2146 119.957 20.2146V18.2146ZM118.063 18.8761C117.611 19.3043 117.342 19.8608 117.342 20.5062H119.342C119.342 20.4628 119.346 20.4165 119.439 20.328L118.063 18.8761ZM117.342 20.5062C117.342 21.0271 117.537 21.4882 117.846 21.8688L119.398 20.6076C119.363 20.5642 119.35 20.5367 119.346 20.5258C119.343 20.5166 119.342 20.512 119.342 20.5062H117.342ZM117.866 21.8931C118.206 22.2847 118.679 22.5462 119.172 22.7329L119.881 20.8629C119.541 20.7338 119.412 20.6223 119.378 20.5833L117.866 21.8931ZM119.171 22.7328L120.872 23.3786L121.582 21.5089L119.881 20.8631L119.171 22.7328ZM120.891 23.3855C121.231 23.507 121.635 23.6911 122.106 23.9469L123.06 22.1892C122.527 21.8996 122.027 21.6675 121.563 21.502L120.891 23.3855ZM122.116 23.9524C122.492 24.1505 122.825 24.4358 123.115 24.8269L124.721 23.6342C124.265 23.0207 123.708 22.531 123.05 22.1837L122.116 23.9524ZM123.115 24.8269C123.32 25.1025 123.478 25.5501 123.478 26.2757H125.478C125.478 25.279 125.262 24.3633 124.721 23.6342L123.115 24.8269ZM123.478 26.2757C123.478 27.2047 123.156 27.9078 122.508 28.4701L123.82 29.9799C124.924 29.0209 125.478 27.7578 125.478 26.2757H123.478ZM122.509 28.4693C121.864 29.0283 121 29.3444 119.828 29.3444V31.3444C121.382 31.3444 122.742 30.9143 123.819 29.9807L122.509 28.4693ZM128.747 30H127.747V31H128.747V30ZM128.747 19.5375H129.747V18.5375H128.747V19.5375ZM126.077 19.5375H125.077V20.5375H126.077V19.5375ZM126.077 17.0833V16.0833H125.077V17.0833H126.077ZM128.811 17.0833V18.0833H129.811V17.0833H128.811ZM128.811 12.7778V11.7778H127.811V12.7778H128.811ZM131.718 12.7778H132.718V11.7778H131.718V12.7778ZM131.718 17.0833H130.718V18.0833H131.718V17.0833ZM134.602 17.0833H135.602V16.0833H134.602V17.0833ZM134.602 19.5375V20.5375H135.602V19.5375H134.602ZM131.782 19.5375V18.5375H130.782V19.5375H131.782ZM131.782 30V31H132.782V30H131.782ZM129.747 30V19.5375H127.747V30H129.747ZM128.747 18.5375H126.077V20.5375H128.747V18.5375ZM127.077 19.5375V17.0833H125.077V19.5375H127.077ZM126.077 18.0833H128.811V16.0833H126.077V18.0833ZM129.811 17.0833V12.7778H127.811V17.0833H129.811ZM128.811 13.7778H131.718V11.7778H128.811V13.7778ZM130.718 12.7778V17.0833H132.718V12.7778H130.718ZM131.718 18.0833H134.602V16.0833H131.718V18.0833ZM133.602 17.0833V19.5375H135.602V17.0833H133.602ZM134.602 18.5375H131.782V20.5375H134.602V18.5375ZM130.782 19.5375V30H132.782V19.5375H130.782ZM131.782 29H128.747V31H131.782V29Z" fill="black" mask="url(#path-4-inside-1_49_337)"/>
</g>
</g>
<defs>
<filter id="filter0_d_49_337" x="30.2666" y="8.66663" width="108.336" height="29.9792" filterUnits="userSpaceOnUse" color-interpolation-filters="sRGB">
<feFlood flood-opacity="0" result="BackgroundImageFix"/>
<feColorMatrix in="SourceAlpha" type="matrix" values="0 0 0 0 0 0 0 0 0 0 0 0 0 0 0 0 0 0 127 0" result="hardAlpha"/>
<feOffset dy="4"/>
<feGaussianBlur stdDeviation="2"/>
<feComposite in2="hardAlpha" operator="out"/>
<feColorMatrix type="matrix" values="0 0 0 0 0 0 0 0 0 0 0 0 0 0 0 0 0 0 0.25 0"/>
<feBlend mode="normal" in2="BackgroundImageFix" result="effect1_dropShadow_49_337"/>
<feBlend mode="normal" in="SourceGraphic" in2="effect1_dropShadow_49_337" result="shape"/>
</filter>
<clipPath id="clip0_49_337">
<rect width="180" height="38" fill="white"/>
</clipPath>
</defs>
</svg>
